<?xml version="1.0" standalone="no"?>
<!DOCTYPE svg PUBLIC "-//W3C//DTD SVG 20010904//EN"
 "http://www.w3.org/TR/2001/REC-SVG-20010904/DTD/svg10.dtd">
<svg version="1.0" xmlns="http://www.w3.org/2000/svg"
 width="436.000000pt" height="518.000000pt" viewBox="0 0 436.000000 518.000000"
 preserveAspectRatio="xMidYMid meet">

<g transform="translate(0.000000,518.000000) scale(0.100000,-0.100000)"
fill="#000000" stroke="none">
<path d="M0 2590 l0 -2590 2175 0 2175 0 0 2590 0 2590 -2175 0 -2175 0 0
-2590z m1145 845 l11 -50 13 53 c12 50 14 52 47 52 31 0 34 -3 44 -42 6 -24
13 -47 14 -53 3 -9 8 6 21 70 4 20 11 25 35 25 17 0 30 -3 30 -7 0 -5 -10 -52
-22 -105 l-21 -98 -33 0 c-31 0 -33 3 -51 63 l-19 62 -15 -60 c-14 -58 -16
-60 -50 -63 l-35 -3 -17 83 c-10 46 -20 93 -24 106 -5 22 -3 23 28 20 31 -3
34 -6 44 -53z m485 -50 l0 -105 -30 0 -30 0 0 105 0 105 30 0 30 0 0 -105z
m1070 75 c0 -20 5 -30 15 -30 8 0 15 -9 15 -20 0 -11 -7 -20 -15 -20 -10 0
-15 -11 -15 -35 0 -24 5 -35 15 -35 8 0 15 -9 15 -20 0 -16 -7 -20 -33 -20
-44 0 -57 15 -57 67 0 24 -4 43 -10 43 -5 0 -10 9 -10 20 0 11 5 20 10 20 6 0
10 6 10 14 0 13 36 44 53 45 4 1 7 -12 7 -29z m-1180 -50 c11 -11 20 -31 20
-45 0 -24 -3 -25 -56 -25 -32 0 -53 -4 -49 -9 3 -6 28 -7 56 -4 43 5 49 4 43
-11 -9 -24 -37 -36 -80 -36 -74 0 -111 75 -62 127 29 31 99 32 128 3z m288 4
c12 -8 22 -19 22 -24 0 -15 -49 -23 -64 -11 -20 17 -46 2 -46 -25 0 -29 24
-41 45 -24 16 13 65 6 65 -10 0 -18 -45 -40 -84 -40 -76 0 -113 74 -64 127 26
28 91 32 126 7z m190 -4 c32 -30 30 -82 -4 -109 -57 -45 -144 -12 -144 54 0
66 98 102 148 55z m102 8 c0 -9 3 -9 12 0 15 15 60 16 76 0 8 -8 15 -8 26 1 8
7 27 11 43 9 35 -4 53 -37 53 -100 l0 -48 -35 0 -35 0 0 51 c0 66 -24 62 -28
-4 -3 -44 -5 -47 -32 -47 -27 0 -29 2 -32 48 -2 34 -7 47 -18 47 -11 0 -16
-13 -18 -47 -3 -46 -5 -48 -33 -48 l-29 0 0 75 c0 73 1 75 25 75 14 0 25 -5
25 -12z m380 -8 c11 -11 20 -31 20 -45 0 -24 -3 -25 -56 -25 -32 0 -53 -4 -49
-9 3 -6 28 -7 56 -4 43 5 49 4 43 -11 -9 -24 -37 -36 -80 -36 -74 0 -111 75
-62 127 29 31 99 32 128 3z m418 0 c32 -30 30 -82 -4 -109 -57 -45 -144 -12
-144 54 0 66 98 102 148 55z m-1590 -712 c17 -17 15 -48 -3 -48 -8 0 -15 6
-15 14 0 16 -34 31 -50 21 -19 -12 -10 -25 33 -46 47 -24 57 -35 57 -63 0 -48
-77 -74 -131 -46 -26 15 -26 60 1 60 13 0 20 -7 20 -20 0 -26 25 -36 45 -20
12 10 13 16 4 26 -6 8 -17 14 -24 14 -22 0 -65 41 -65 62 0 36 29 58 75 58 22
0 46 -5 53 -12z m262 -12 c0 -21 5 -25 38 -28 l37 -3 3 -67 3 -68 -31 0 c-29
0 -30 1 -30 50 0 28 -4 50 -10 50 -5 0 -10 -22 -10 -50 l0 -50 -35 0 -35 0 0
95 0 95 35 0 c30 0 35 -3 35 -24z m165 4 c0 -9 -11 -16 -27 -18 -23 -3 -28 1
-28 18 0 17 5 21 28 18 16 -2 27 -9 27 -18z m476 10 c13 -7 19 -21 19 -45 0
-38 -20 -55 -64 -55 -24 0 -26 -4 -26 -40 0 -39 -1 -40 -35 -40 l-35 0 0 95 0
95 61 0 c33 0 69 -5 80 -10z m99 -14 c0 -21 5 -25 38 -28 l37 -3 3 -67 3 -68
-31 0 c-29 0 -30 1 -30 50 0 28 -4 50 -10 50 -5 0 -10 -22 -10 -50 l0 -50 -35
0 -35 0 0 95 0 95 35 0 c30 0 35 -3 35 -24z m528 -98 l3 -68 -31 0 c-29 0 -30
1 -30 50 0 28 -4 50 -10 50 -5 0 -10 -22 -10 -50 l0 -50 -35 0 -35 0 0 69 c0
69 0 70 28 73 15 2 47 1 72 -2 l45 -5 3 -67z m-1359 53 c6 -10 7 -21 4 -25
-13 -13 -31 -5 -36 15 -8 29 -25 15 -33 -25 -8 -44 11 -83 32 -65 8 6 14 18
14 25 0 8 7 14 15 14 20 0 19 -24 -1 -44 -20 -21 -83 -20 -106 1 -24 22 -24
77 2 103 27 27 95 28 109 1z m261 -51 l0 -70 -35 0 -35 0 0 70 0 70 35 0 35 0
0 -70z m140 54 c0 -8 -11 -32 -25 -52 -14 -20 -25 -40 -25 -44 0 -5 11 -8 25
-8 14 0 25 -4 25 -10 0 -6 -28 -10 -65 -10 -36 0 -65 4 -65 10 0 5 14 31 30
57 l31 48 -26 3 c-49 6 -24 22 35 22 48 0 60 -3 60 -16z m142 -1 c23 -20 24
-80 1 -105 -21 -23 -89 -24 -115 -1 -23 20 -24 80 -1 105 21 23 89 24 115 1z
m508 -8 c0 -20 -5 -25 -25 -25 -23 0 -25 -4 -25 -45 0 -45 0 -45 -35 -45 l-35
0 0 70 0 70 60 0 c57 0 60 -1 60 -25z m134 3 c28 -40 21 -58 -24 -58 -43 0
-48 -6 -27 -35 13 -17 15 -17 30 6 13 18 20 20 28 12 36 -36 -74 -61 -113 -26
-22 20 -24 71 -2 101 11 16 25 22 54 22 29 0 43 -6 54 -22z"/>
<path d="M1435 3380 c-4 -6 5 -10 20 -10 15 0 24 4 20 10 -3 6 -12 10 -20 10
-8 0 -17 -4 -20 -10z"/>
<path d="M1914 3376 c-10 -26 0 -51 21 -51 16 0 20 7 20 30 0 33 -30 49 -41
21z"/>
<path d="M2395 3380 c-4 -6 5 -10 20 -10 15 0 24 4 20 10 -3 6 -12 10 -20 10
-8 0 -17 -4 -20 -10z"/>
<path d="M2814 3376 c-10 -26 0 -51 21 -51 16 0 20 7 20 30 0 33 -30 49 -41
21z"/>
<path d="M2140 2658 c0 -42 5 -47 19 -19 7 13 6 24 -4 37 -13 18 -14 16 -15
-18z"/>
<path d="M1956 2618 c-5 -16 -5 -40 0 -55 l8 -28 4 28 c2 15 2 39 0 55 l-4 27
-8 -27z"/>
<path d="M2607 2626 c-4 -10 -5 -21 -2 -24 9 -9 17 6 13 25 -3 17 -4 17 -11
-1z"/>
</g>
</svg>
